<svg width="170" height="33" viewBox="0 0 170 33" fill="none" xmlns="http://www.w3.org/2000/svg">
<path d="M10.78 0.079999H0.412V26H6.532V17.432H10.78C17.188 17.432 20.5 14.696 20.5 9.44V8.072C20.5 2.78 17.188 0.079999 10.78 0.079999ZM10.924 5.264C13.3 5.264 14.38 6.2 14.38 8.18V9.332C14.38 11.312 13.3 12.248 10.924 12.248H6.532V5.264H10.924ZM22.356 15.164V18.26C22.356 23.3 25.92 26.432 31.68 26.432H31.896C37.656 26.432 41.22 23.3 41.22 18.26V15.164C41.22 10.124 37.656 6.992 31.896 6.992H31.68C25.92 6.992 22.356 10.124 22.356 15.164ZM28.296 14.732C28.296 12.644 29.556 11.528 31.752 11.528H31.824C34.02 11.528 35.28 12.644 35.28 14.732V18.692C35.28 20.78 34.02 21.896 31.824 21.896H31.752C29.556 21.896 28.296 20.78 28.296 18.692V14.732ZM50.4846 0.079999H44.5446V26H50.4846V0.079999ZM58.5919 7.424H52.5799L59.7079 25.82C59.0959 26.972 58.2679 27.368 56.7559 27.368H54.2719V32.12H56.9719C61.5439 32.12 64.0279 30.428 65.6119 26.18L72.5959 7.424H66.7999L62.7679 18.944L58.5919 7.424ZM80.667 26V13.544C80.883 12.896 81.783 11.708 83.763 11.708C85.419 11.708 86.391 12.608 86.391 14.228V26H92.331V14.12C92.331 13.94 92.331 13.76 92.331 13.58C92.547 12.896 93.447 11.708 95.427 11.708C97.083 11.708 98.055 12.608 98.055 14.228V26H103.995V14.12C103.995 9.62 101.403 6.992 96.939 6.992C94.131 6.992 92.331 8.18 91.179 9.728C90.063 7.964 88.155 6.992 85.635 6.992C83.187 6.992 81.531 8.036 80.451 9.476V7.424H74.727V26H80.667ZM107.119 15.164V18.26C107.119 23.3 110.683 26.432 116.443 26.432H116.659C122.419 26.432 125.983 23.3 125.983 18.26V15.164C125.983 10.124 122.419 6.992 116.659 6.992H116.443C110.683 6.992 107.119 10.124 107.119 15.164ZM113.059 14.732C113.059 12.644 114.319 11.528 116.515 11.528H116.587C118.783 11.528 120.043 12.644 120.043 14.732V18.692C120.043 20.78 118.783 21.896 116.587 21.896H116.515C114.319 21.896 113.059 20.78 113.059 18.692V14.732ZM136.112 26.432C138.776 26.432 140.576 25.28 141.728 23.732V26H147.452V0.079999H141.512V9.44C140.36 8 138.632 6.992 136.112 6.992C131.576 6.992 128.804 10.088 128.804 15.092V18.332C128.804 23.336 131.576 26.432 136.112 26.432ZM134.744 18.44V14.984C134.744 12.752 135.788 11.672 138.02 11.672C140.216 11.672 141.188 12.824 141.512 13.724V19.7C141.188 20.6 140.216 21.752 138.02 21.752C135.788 21.752 134.744 20.672 134.744 18.44ZM159.73 26.432H160.234C165.598 26.432 168.442 24.416 168.874 20.348H163.33C163.186 21.536 162.286 22.04 160.27 22.04H159.694C157.498 22.04 156.49 21.104 156.49 19.16V18.44H169.054V14.732C169.054 9.872 165.778 6.992 160.198 6.992H159.766C154.15 6.992 150.766 10.016 150.766 15.056V18.26C150.766 23.372 154.114 26.432 159.73 26.432ZM156.49 14.264C156.49 12.104 157.462 11.168 159.73 11.168H160.234C162.502 11.168 163.474 12.068 163.474 14.264V14.624H156.49V14.264Z" fill="url(#paint0_linear_191_2207)"/>
<defs>
<linearGradient id="paint0_linear_191_2207" x1="-2" y1="31" x2="111.865" y2="31" gradientUnits="userSpaceOnUse">
<stop stop-color="#00AEEF"/>
<stop offset="0.28125" stop-color="#087CFA"/>
<stop offset="0.520833" stop-color="#FDA3BF"/>
<stop offset="0.770833" stop-color="#F680A9"/>
<stop offset="1" stop-color="#F05F96"/>
</linearGradient>
</defs>
</svg>
