<svg width="166" height="34" viewBox="0 0 166 34" fill="none" xmlns="http://www.w3.org/2000/svg">
<path d="M9.27142 0.079999H0.0194219V26H6.13942V20.96H9.27142C16.6874 20.96 21.3674 17.108 21.3674 10.7V10.34C21.3674 3.896 16.6874 0.079999 9.27142 0.079999ZM9.27142 5.228C13.1954 5.228 15.2114 7.208 15.2114 10.448V10.628C15.2114 13.832 13.1594 15.812 9.27142 15.812H6.13942V5.228H9.27142ZM23.1168 16.676V16.748C23.1168 22.076 27.7248 26.432 33.0528 26.432H33.1248C38.4888 26.432 43.0608 22.076 43.0608 16.748V16.676C43.0608 11.312 38.4888 6.992 33.1248 6.992H33.0528C27.7248 6.992 23.1168 11.312 23.1168 16.676ZM28.9848 16.676C28.9848 14.336 30.6048 12.392 33.0528 12.392H33.1248C35.5008 12.392 37.1568 14.336 37.1568 16.676V16.748C37.1568 19.088 35.4288 21.032 33.1248 21.032H33.0528C30.6048 21.032 28.9848 19.088 28.9848 16.748V16.676ZM52.0256 0.079999H46.0856V26H52.0256V0.079999ZM59.773 7.424H53.977L59.845 23.588L58.657 26.828C58.117 28.304 57.541 28.808 56.209 28.808H48.037V33.56H57.361C61.177 33.56 62.617 32.372 63.949 28.592L71.473 7.424H65.749L62.761 16.568L59.773 7.424ZM79.3252 26V17.36L82.2412 13.58C82.4572 13.328 82.6372 13.184 82.8172 13.184C82.9972 13.184 83.1412 13.292 83.1412 13.652V26H88.5772V17.18L91.3492 13.58C91.5652 13.328 91.7452 13.184 91.9252 13.184C92.1052 13.184 92.2492 13.292 92.2492 13.652V26H98.1892V11.24C98.1892 8.144 96.5692 6.992 94.5532 6.992C92.7532 6.992 91.0972 7.388 89.5852 9.476L88.3612 11.168C88.2532 8.432 87.0292 6.992 84.9412 6.992C83.2492 6.992 81.9892 7.424 80.4052 9.512L79.0012 11.348V7.424H73.3852V26H79.3252ZM101.13 16.676V16.748C101.13 22.076 105.738 26.432 111.066 26.432H111.138C116.502 26.432 121.074 22.076 121.074 16.748V16.676C121.074 11.312 116.502 6.992 111.138 6.992H111.066C105.738 6.992 101.13 11.312 101.13 16.676ZM106.998 16.676C106.998 14.336 108.618 12.392 111.066 12.392H111.138C113.514 12.392 115.17 14.336 115.17 16.676V16.748C115.17 19.088 113.442 21.032 111.138 21.032H111.066C108.618 21.032 106.998 19.088 106.998 16.748V16.676ZM129.859 26.432C132.847 26.432 134.827 24.884 137.059 22.148V26H142.747V0.079999H136.807V9.692L135.943 9.008C134.503 7.892 132.883 6.992 130.507 6.992C126.259 6.992 123.739 9.368 123.739 14.192V19.412C123.739 24.524 126.727 26.432 129.859 26.432ZM129.823 19.16V14.012C129.823 12.284 130.651 11.78 131.839 11.78C132.739 11.78 133.711 12.248 135.007 13.292L136.807 14.732V16.388L136.051 17.252C134.143 19.484 132.451 21.464 131.299 21.464C130.435 21.464 129.823 20.96 129.823 19.16ZM155.553 26.432H155.625C160.341 26.432 164.301 23.588 165.057 19.736H159.297C158.829 20.96 157.497 21.752 155.769 21.752H155.697C153.393 21.752 151.665 20.204 151.341 18.008H165.381V16.676C165.381 11.132 161.205 6.992 155.625 6.992H155.553C150.081 6.992 145.797 11.24 145.797 16.676V16.748C145.797 22.184 150.081 26.432 155.553 26.432ZM155.697 11.42H155.769C157.533 11.42 159.045 12.428 159.729 13.94H151.701C152.385 12.428 153.861 11.42 155.697 11.42Z" fill="url(#paint0_linear_191_2213)"/>
<defs>
<linearGradient id="paint0_linear_191_2213" x1="-2.39258" y1="31" x2="109.498" y2="31" gradientUnits="userSpaceOnUse">
<stop stop-color="#00AEEF"/>
<stop offset="0.28125" stop-color="#087CFA"/>
<stop offset="0.520833" stop-color="#FDA3BF"/>
<stop offset="0.770833" stop-color="#F680A9"/>
<stop offset="1" stop-color="#F05F96"/>
</linearGradient>
</defs>
</svg>
